<?xml version="1.0" encoding="utf-8"?>
<!-- Generator: Adobe Illustrator 22.1.0, SVG Export Plug-In . SVG Version: 6.00 Build 0)  -->
<svg version="1.1" id="图层_1" xmlns="http://www.w3.org/2000/svg" xmlns:xlink="http://www.w3.org/1999/xlink" x="0px" y="0px"
	 viewBox="0 0 379 154.3" style="enable-background:new 0 0 379 154.3;" xml:space="preserve">
<style type="text/css">
	.st0{filter:url(#filter-6);}
	.st1{fill:#FFFFFF;}
	.st2{filter:url(#filter-2);}
	.st3{filter:url(#filter-4);}
	.st4{filter:url(#filter-8);}
	.st5{fill:#FF905F;}
	.st6{font-family:'Arial-BoldMT';}
	.st7{font-size:50px;}
	.st8{fill:#50E3C2;}
	.st9{fill:#9013FE;}
	.st10{fill:#F8E71C;}
</style>
<filter  filterUnits="objectBoundingBox" height="107.5%" id="filter-8" width="122.6%" x="-10.1%" y="-2.2%">
	<feOffset  dx="1" dy="4" in="SourceAlpha" result="shadowOffsetOuter1"></feOffset>
	<feGaussianBlur  in="shadowOffsetOuter1" result="shadowBlurOuter1" stdDeviation="2.5"></feGaussianBlur>
	<feColorMatrix  in="shadowBlurOuter1" type="matrix" values="0 0 0 0 0   0 0 0 0 0   0 0 0 0 0  0 0 0 0.117498868 0">
		</feColorMatrix>
</filter>
<filter  filterUnits="objectBoundingBox" height="107.5%" id="filter-6" width="122.6%" x="-10.1%" y="-2.2%">
	<feOffset  dx="1" dy="4" in="SourceAlpha" result="shadowOffsetOuter1"></feOffset>
	<feGaussianBlur  in="shadowOffsetOuter1" result="shadowBlurOuter1" stdDeviation="2.5"></feGaussianBlur>
	<feColorMatrix  in="shadowBlurOuter1" type="matrix" values="0 0 0 0 0   0 0 0 0 0   0 0 0 0 0  0 0 0 0.117498868 0">
		</feColorMatrix>
</filter>
<filter  filterUnits="objectBoundingBox" height="107.5%" id="filter-4" width="122.6%" x="-10.1%" y="-2.2%">
	<feOffset  dx="1" dy="4" in="SourceAlpha" result="shadowOffsetOuter1"></feOffset>
	<feGaussianBlur  in="shadowOffsetOuter1" result="shadowBlurOuter1" stdDeviation="2.5"></feGaussianBlur>
	<feColorMatrix  in="shadowBlurOuter1" type="matrix" values="0 0 0 0 0   0 0 0 0 0   0 0 0 0 0  0 0 0 0.117498868 0">
		</feColorMatrix>
</filter>
<filter  filterUnits="objectBoundingBox" height="107.5%" id="filter-2" width="122.6%" x="-10.1%" y="-2.2%">
	<feOffset  dx="1" dy="4" in="SourceAlpha" result="shadowOffsetOuter1"></feOffset>
	<feGaussianBlur  in="shadowOffsetOuter1" result="shadowBlurOuter1" stdDeviation="2.5"></feGaussianBlur>
	<feColorMatrix  in="shadowBlurOuter1" type="matrix" values="0 0 0 0 0   0 0 0 0 0   0 0 0 0 0  0 0 0 0.117498868 0">
		</feColorMatrix>
</filter>
<g id="Color-Copy-15_2_">
	<g class="st0">
		<polygon id="path-5_5_" points="4,1 88,1 88,151 4,151 		"/>
	</g>
	<polygon id="path-5_4_" class="st1" points="4,1 88,1 88,151 4,151 	"/>
</g>
<g id="Color-Copy-15_1_">
	<g class="st0">
		<polygon id="path-5_5_" points="194,0 278,0 278,150 194,150 		"/>
	</g>
	<polygon id="path-5_2_" class="st1" points="194,0 278,0 278,150 194,150 	"/>
</g>
<polygon id="path-5_3_" class="st1" points="4,0 88,0 88,150 4,150 "/>
<title>Group 8 Copy</title>
<desc>Created with Sketch.</desc>
<g class="st2">
</g>
<g class="st3">
</g>
<g id="Color-Copy-15">
	<g class="st0">
		<polygon id="path-5_5_" points="99,1 183,1 183,151 99,151 		"/>
	</g>
	<polygon id="path-5_1_" class="st1" points="99,1 183,1 183,151 99,151 	"/>
</g>
<g id="Color-Copy-16">
	<g class="st4">
		<polygon id="path-7_2_" points="289,1 373,1 373,151 289,151 		"/>
	</g>
	<g>
		<polygon id="path-7_1_" class="st1" points="289,1 373,1 373,151 289,151 		"/>
	</g>
</g>
<text transform="matrix(1 0 0 1 125.5 102.0361)" class="st5 st6 st7">B</text>
<text transform="matrix(1 0 0 1 217.1 102.0361)" class="st8 st6 st7">C</text>
<text transform="matrix(1 0 0 1 312.75 102.0361)" class="st9 st6 st7">D</text>
<text transform="matrix(1 0 0 1 27.975 102.0361)" class="st10 st6 st7">A</text>
<rect id="Rectangle-Copy-11" x="4" y="1" class="st10" width="84" height="11"/>
<rect id="Rectangle-Copy-12" x="99" y="1" class="st5" width="84" height="11"/>
<rect id="Rectangle-Copy-13" x="194" y="1" class="st8" width="84" height="11"/>
<rect id="Rectangle-Copy-14" x="289" y="1" class="st9" width="84" height="11"/>
</svg>
