<?xml version="1.0" encoding="utf-8"?>
<!-- Generator: Adobe Illustrator 22.1.0, SVG Export Plug-In . SVG Version: 6.00 Build 0)  -->
<svg version="1.1" id="图层_1" xmlns="http://www.w3.org/2000/svg" xmlns:xlink="http://www.w3.org/1999/xlink" x="0px" y="0px"
	 viewBox="0 0 191 103.1" style="enable-background:new 0 0 191 103.1;" xml:space="preserve">
<style type="text/css">
	.st0{fill:#FF905F;}
	.st1{filter:url(#Adobe_OpacityMaskFilter);}
	.st2{fill:#FFFFFF;}
	.st3{mask:url(#mask-2_1_);}
</style>
<title>Cards/girl</title>
<desc>Created with Sketch.</desc>
<rect id="Color" class="st0" width="191" height="103.1"/>
<g id="icon_x2F_black_x2F_girl_x5F_face" transform="translate(70.643836, 28.725389)">
	<g id="Clip-2">
	</g>
	<defs>
		<filter id="Adobe_OpacityMaskFilter" filterUnits="userSpaceOnUse" x="-26.5" y="-26" width="102" height="100">
			<feColorMatrix  type="matrix" values="1 0 0 0 0  0 1 0 0 0  0 0 1 0 0  0 0 0 1 0"/>
		</filter>
	</defs>
	<mask maskUnits="userSpaceOnUse" x="-26.5" y="-26" width="102" height="100" id="mask-2_1_">
		<g class="st1">
			<path id="path-1_1_" class="st2" d="M4.1,22C4.1,22,4.1,22,4.1,22C4.1,22.1,4.1,22.1,4.1,22v23.1c0,0.2,0.2,0.4,0.5,0.3l13.3-4.6
				c2.1,0.7,4.3,1.1,6.7,1.1s4.6-0.4,6.7-1.1l13.3,4.6c0.2,0.1,0.5-0.1,0.5-0.3v-23c0,0,0,0,0,0c0,0,0,0,0-0.1c0-11-9.1-20-20.4-20
				S4.1,11,4.1,22z M28.6,20.3l1.7-8l1.2,8h9.2c0.3,2.7-0.1,5.6-1.5,8.6c-2.2,4.5-6.4,7.8-11.4,8.8C17.4,39.7,8.2,31.9,8.2,22
				c0-0.6,0-1.2,0.1-1.7h8l2.9-6.9l0,6.9H28.6z M28.1,26c0,1.4,1.1,2.5,2.6,2.5c1.4,0,2.6-1.1,2.6-2.5s-1.1-2.5-2.6-2.5
				C29.2,23.5,28.1,24.6,28.1,26z M15.8,26c0,1.4,1.1,2.5,2.6,2.5s2.6-1.1,2.6-2.5s-1.1-2.5-2.6-2.5S15.8,24.6,15.8,26z"/>
		</g>
	</mask>
	<g id="Colors_x2F_Black-Copy-3" class="st3">
		<g transform="translate(-26.541667, -26.000000)">
			<g id="Black">
				<rect id="path-3_1_" x="0" y="0" class="st2" width="102" height="100"/>
			</g>
		</g>
	</g>
</g>
</svg>
