<?xml version="1.0" encoding="UTF-8"?>
<svg width="71px" height="40px" viewBox="0 0 71 40" version="1.1" xmlns="http://www.w3.org/2000/svg" xmlns:xlink="http://www.w3.org/1999/xlink">
    <!-- Generator: Sketch 52.4 (67378) - http://www.bohemiancoding.com/sketch -->
    <title>Group 14</title>
    <desc>Created with Sketch.</desc>
    <defs>
        <path d="M0,29.5833333 L23.6666667,29.5833333 L23.6666667,35.5 L0,35.5 L0,29.5833333 Z M53.25,32.5416667 C58.1608333,32.5416667 62.0954167,28.5775 62.0954167,23.6666667 C62.0954167,18.7558333 58.1608333,14.7916667 53.25,14.7916667 C52.3033333,14.7916667 51.38625,14.9395833 50.5579167,15.2058333 C52.2441667,17.6020833 53.2204167,20.50125 53.2204167,23.6666667 C53.2204167,26.8320833 52.2145833,29.7016667 50.5579167,32.1275 C51.38625,32.39375 52.3033333,32.5416667 53.25,32.5416667 L53.25,32.5416667 Z M38.4583333,32.5416667 C43.3691667,32.5416667 47.30375,28.5775 47.30375,23.6666667 C47.30375,18.7558333 43.3691667,14.7916667 38.4583333,14.7916667 C33.5475,14.7916667 29.5833333,18.7558333 29.5833333,23.6666667 C29.5833333,28.5775 33.5475,32.5416667 38.4583333,32.5416667 L38.4583333,32.5416667 Z M58.0425,38.9316667 C60.4979167,41.09125 62.125,43.8425 62.125,47.3333333 L62.125,53.25 L71,53.25 L71,47.3333333 C71,42.7775 63.98875,39.9670833 58.0425,38.9316667 L58.0425,38.9316667 Z M38.4583333,38.4583333 C32.5416667,38.4583333 20.7083333,41.4166667 20.7083333,47.3333333 L20.7083333,53.25 L56.2083333,53.25 L56.2083333,47.3333333 C56.2083333,41.4166667 44.375,38.4583333 38.4583333,38.4583333 L38.4583333,38.4583333 Z" id="path-1"></path>
        <rect id="path-3" x="0" y="0" width="148" height="148"></rect>
    </defs>
    <g id="Page-1" stroke="none" stroke-width="1" fill="none" fill-rule="evenodd">
        <g id="Group-14" transform="translate(0.000000, -14.000000)">
            <g id="ic_group_clear">
                <mask id="mask-2" fill="white">
                    <use xlink:href="#path-1"></use>
                </mask>
                <g id="Mask"></g>
                <g id="Colors/Black" mask="url(#mask-2)">
                    <g transform="translate(-38.458333, -38.458333)">
                        <mask id="mask-4" fill="white">
                            <use xlink:href="#path-3"></use>
                        </mask>
                        <use id="Black" stroke="none" fill="#000000" fill-rule="evenodd" xlink:href="#path-3"></use>
                    </g>
                </g>
            </g>
            <rect id="Rectangle" fill="#000000" x="5" y="30" width="21" height="6"></rect>
        </g>
    </g>
</svg>