<svg height="512pt" viewBox="0 0 512 511" width="512pt" xmlns="http://www.w3.org/2000/svg"><path d="m129.367188 57.535156 2.628906-19.941406c1.871094-14.199219 16.960937-22.523438 29.96875-16.539062 6.441406 2.964843 13.9375 2.519531 19.984375-1.179688l8.980469-5.496094c19.65625-12.023437 45.285156-6.597656 58.375 12.367188 5.734374 8.3125 16.523437 11.441406 25.816406 7.492187l17.117187-7.277343c14.847657-6.3125 32.011719.488281 38.511719 15.257812 2.722656 6.183594 8.277344 10.664062 14.898438 12.015625l13.238281 2.699219c14.261719 2.90625 21.214843 19.175781 13.460937 31.496094l-2.476562 3.929687c-4.664063 7.410156-4.195313 16.945313 1.175781 23.863281 7.402344 9.535156 5.171875 23.34375-4.851563 30.0625l-41.359374 27.726563h-217.070313l-20.226563-71.453125c-3.6875-13.03125 5.847657-26.0625 19.382813-26.484375l2.027344-.0625c10.414062-.328125 19.054687-8.148438 20.417969-18.476563zm0 0" fill="#bebfc0"/><path d="m233.527344 148.84375-7.164063-46.355469c-2.230469-14.429687 8.933594-27.449219 23.535157-27.449219 7.601562 0 14.535156-4.359374 17.828124-11.210937l2.378907-4.941406c6.542969-13.601563 23.203125-18.867188 36.375-11.492188 5.5 3.078125 12.140625 3.351563 17.875.738281l21.59375-9.847656c11.621093-5.296875 25.136719 1.636719 27.617187 14.160156 2.535156 12.789063 16.527344 19.671876 28.207032 13.878907l15.070312-7.480469c8.566406-4.25 18.945312-1.765625 24.660156 5.898438 10.609375 14.234374 13.851563 32.652343 8.730469 49.652343l-14.886719 49.449219zm0 0" fill="#ececed"/><path d="m59.082031 89.679688 1.65625-5.660157c2.785157-9.53125 12.839844-14.933593 22.324219-11.996093l5.363281 1.664062c7.738281 2.394531 16.121094-.742188 20.382813-7.632812l5.414062-8.753907c5.773438-9.335937 18.542969-11.261719 26.8125-4.039062l7.15625 6.246093c5.335938 4.660157 12.925782 5.707032 19.324219 2.664063 10.328125-4.910156 22.539063 1.066406 25 12.234375l1.445313 6.578125c.4375 1.992187 1.21875 3.894531 2.304687 5.625l4.625 7.375c5.785156 9.222656 2.003906 21.425781-7.984375 25.757813l-39.777344 17.261718-81.8125 3.480469c-12.808594-13.5625-17.464844-32.898437-12.234375-50.804687zm0 0" fill="#ececed"/><path d="m476.222656 181.179688h-440.445312c-15.617188 0-28.277344-12.660157-28.277344-28.277344v-19.949219c0-15.613281 12.660156-28.273437 28.277344-28.273437h440.445312c15.617188 0 28.277344 12.660156 28.277344 28.273437v19.949219c0 15.613281-12.660156 28.277344-28.277344 28.277344zm0 0" fill="#495059"/><path d="m453.023438 181.179688h-394.046876l31.378907 290.96875c2.015625 18.683593 17.789062 32.847656 36.582031 32.847656h258.125c18.792969 0 34.566406-14.164063 36.582031-32.847656zm0 0" fill="#7bd0a7"/><path d="m58.976562 181.179688 31.378907 290.96875c2.015625 18.683593 17.789062 32.847656 36.582031 32.847656h156.640625c-93.761719-70.246094-103.046875-238.34375-94.6875-323.820313h-129.914063zm0 0" fill="#68bf97"/><path d="m200.886719 288.386719c0-14.171875-14.429688-25.660157-32.226563-25.660157s-32.226562 11.488282-32.226562 25.660157c0 14.175781 14.429687 25.664062 32.226562 25.664062s32.226563-11.488281 32.226563-25.664062zm0 0" fill="#fff"/><path d="m375.566406 288.386719c0-14.171875-14.429687-25.660157-32.226562-25.660157s-32.226563 11.488282-32.226563 25.660157c0 14.175781 14.429688 25.664062 32.226563 25.664062s32.226562-11.488281 32.226562-25.664062zm0 0" fill="#fff"/><path d="m256 401.652344c-72.460938 0-99.023438 22.6875-170.933594 21.445312l5.289063 49.050782c2.015625 18.683593 17.789062 32.847656 36.582031 32.847656h258.125c18.792969 0 34.566406-14.164063 36.578125-32.847656l5.292969-49.050782c-71.910156 1.242188-98.472656-21.445312-170.933594-21.445312zm0 0" fill="#61ae85"/><path d="m35.777344 104.675781c-15.617188 0-28.277344 12.660157-28.277344 28.277344v19.945313c0 15.617187 12.660156 28.277343 28.277344 28.277343h203.949218c-32.625-13.757812-46.914062-50.789062-34.394531-76.5zm0 0" fill="#41464f"/><path d="m213.851562 404.453125c-44.199218 6.027344-72.703124 19.613281-128.785156 18.644531l5.289063 49.050782c2.015625 18.683593 17.789062 32.847656 36.582031 32.847656h156.640625c-32.429687-24.296875-54.742187-60.300782-69.726563-100.542969zm0 0" fill="#5a9e79"/><path d="m264.261719 462.015625c0 4.027344-3.265625 7.289063-7.289063 7.289063-4.027344 0-7.292968-3.261719-7.292968-7.289063s3.265624-7.289063 7.292968-7.289063c4.023438 0 7.289063 3.261719 7.289063 7.289063zm0 0" fill="#5a9e79"/><path d="m204.683594 462.015625c0 4.027344-3.265625 7.289063-7.292969 7.289063-4.023437 0-7.289063-3.261719-7.289063-7.289063s3.265626-7.289063 7.289063-7.289063c4.027344 0 7.292969 3.261719 7.292969 7.289063zm0 0" fill="#61ae85"/><path d="m145.101562 462.015625c0 4.027344-3.261718 7.289063-7.289062 7.289063s-7.289062-3.261719-7.289062-7.289063 3.261718-7.289063 7.289062-7.289063 7.289062 3.261719 7.289062 7.289063zm0 0" fill="#61ae85"/><path d="m323.839844 462.015625c0 4.027344-3.265625 7.289063-7.289063 7.289063-4.027343 0-7.289062-3.261719-7.289062-7.289063s3.261719-7.289063 7.289062-7.289063c4.023438 0 7.289063 3.261719 7.289063 7.289063zm0 0" fill="#5a9e79"/><path d="m383.417969 462.015625c0 4.027344-3.261719 7.289063-7.289063 7.289063s-7.289062-3.261719-7.289062-7.289063 3.261718-7.289063 7.289062-7.289063 7.289063 3.261719 7.289063 7.289063zm0 0" fill="#5a9e79"/><path d="m256 293.300781c8.402344 0 16.394531-3.640625 21.925781-9.984375 2.722657-3.121094 2.394531-7.859375-.726562-10.582031-3.125-2.71875-7.859375-2.394531-10.582031.726563-2.683594 3.078124-6.550782 4.839843-10.617188 4.839843s-7.9375-1.761719-10.617188-4.839843c-2.722656-3.121094-7.457031-3.445313-10.582031-.726563-3.121093 2.722656-3.445312 7.460937-.726562 10.582031 5.53125 6.347656 13.523437 9.984375 21.925781 9.984375zm220.222656-196.125h-16.121094c-.207031-13.269531-4.546874-26.132812-12.585937-36.917969-7.886719-10.574218-22.1875-13.996093-34.003906-8.132812l-15.074219 7.480469c-3.457031 1.714843-7.421875 1.722656-10.886719.015625-3.460937-1.703125-5.875-4.851563-6.625-8.636719-1.632812-8.230469-6.851562-15.148437-14.316406-18.976563-7.46875-3.828124-16.132813-4.027343-23.769531-.546874l-7.492188 3.414062c-9.382812-15.394531-29.03125-22.046875-46.042968-14.816406l-17.117188 7.273437c-5.984375 2.542969-13.015625.507813-16.714844-4.847656-15.34375-22.230469-45.414062-28.597656-68.457031-14.5l-8.980469 5.492187c-3.921875 2.398438-8.757812 2.6875-12.9375.765626-8.386718-3.859376-17.832031-3.511719-25.917968.949218-8.082032 4.460938-13.410157 12.269532-14.617188 21.421875l-.710938 5.371094c-6.632812 1.472656-12.40625 5.542969-16.007812 11.371094l-5.414062 8.753906c-2.464844 3.984375-7.3125 5.800781-11.785157 4.410156l-5.359375-1.660156c-6.523437-2.019531-13.429687-1.351563-19.445312 1.878906s-10.386719 8.621094-12.300782 15.179688l-1.652343 5.65625c-.921875 3.148437-1.570313 6.359375-1.960938 9.601562h-14.148437c-7.433594 0-14.558594 2.261719-20.613282 6.535157-3.382812 2.386718-4.191406 7.066406-1.800781 10.449218 2.386719 3.386719 7.066407 4.191406 10.449219 1.804688 3.511719-2.476563 7.648438-3.789063 11.964844-3.789063h167.769531.015625.007812 23.097657c.007812 0 .015625.003907.023437.003907.003906 0 .007813-.003907.011719-.003907h225.4375.027344 24.054687c11.457032 0 20.777344 9.320313 20.777344 20.777344v19.945313c0 11.457031-9.320312 20.777343-20.777344 20.777343h-23.148437c-.011719 0-.023438 0-.035157 0h-394.074218c-.015625 0-.03125 0-.050782 0h-23.136718c-11.457032 0-20.777344-9.320312-20.777344-20.777343v-12.414063c0-4.144531-3.355469-7.5-7.5-7.5s-7.5 3.355469-7.5 7.5v12.414063c0 19.726562 16.050781 35.777343 35.777344 35.777343h16.460937l30.660157 284.277344c2.433593 22.542969 21.363281 39.542969 44.039062 39.542969h258.125c12.421875 0 24.351562-5.269532 32.730469-14.449219 2.792969-3.0625 2.574219-7.804687-.484375-10.597656s-7.804688-2.574219-10.59375.484375c-5.546875 6.078125-13.4375 9.558594-21.652344 9.558594h-258.125c-14.996094 0-27.515625-11.242188-29.125-26.148438l-4.390625-40.71875c32.957031-.292969 56.734375-5.589844 79.78125-10.742188 23.597656-5.277343 48-10.730468 82.796875-10.730468s59.199219 5.453125 82.800781 10.730468c23.046875 5.152344 46.824219 10.464844 79.777344 10.75l-3.148437 29.175782c-.441407 4.117187 2.535156 7.816406 6.652343 8.261718.273438.027344.546875.042969.816407.042969 3.78125 0 7.03125-2.851562 7.445312-6.695312l29.417969-272.742188h16.460937c19.726563 0 35.777344-16.050781 35.777344-35.777343v-19.945313c0-19.726563-16.050781-35.777344-35.777344-35.777344zm-181.050781-63.3125c9.542969-4.054687 20.480469-.761719 26.367187 7.308594l-.296874.136719c-3.546876 1.617187-7.695313 1.445312-11.097657-.460938-6.910156-3.867187-15-5.144531-22.722656-3.691406zm-230.105469 63.3125c.296875-1.816406.699219-3.621093 1.214844-5.394531l1.652344-5.65625c.78125-2.667969 2.558594-4.859375 5.003906-6.171875 2.445312-1.316406 5.253906-1.585937 7.90625-.765625l5.359375 1.664062c11.007813 3.410157 22.921875-1.054687 28.980469-10.851562l5.414062-8.753906c1.589844-2.574219 4.21875-4.308594 7.210938-4.757813 2.988281-.453125 6.011718.433594 8.292968 2.421875l7.15625 6.246094c7.59375 6.628906 18.378907 8.113281 27.476563 3.789062 2.84375-1.351562 6.101563-1.335937 8.933594.050782 2.828125 1.386718 4.84375 3.945312 5.519531 7.023437l1.445312 6.574219c.625 2.839844 1.726563 5.53125 3.277344 8l4.128906 6.582031zm161.058594-18.703125c-4.535156 5.289063-7.128906 11.871094-7.492188 18.703125h-8.308593c-.640625-2.515625-1.667969-4.929687-3.078125-7.175781l-4.628906-7.378906c-.628907-1-1.078126-2.09375-1.332032-3.253906l-1.445312-6.574219c-1.667969-7.570313-6.613282-13.863281-13.574219-17.269531s-14.96875-3.453126-21.96875-.125c-3.699219 1.757812-8.085937 1.15625-11.171875-1.539063l-7.15625-6.25c-2.148438-1.875-4.570312-3.347656-7.148438-4.390625l.613282-4.644531c.578125-4.382813 3.128906-8.117188 6.996094-10.253907 3.867187-2.132812 8.386718-2.300781 12.402343-.453124 8.730469 4.015624 18.839844 3.417968 27.03125-1.597657l8.980469-5.496093c16.253906-9.941407 37.464844-5.449219 48.285156 10.230468 7.121094 10.3125 20.152344 14.71875 31.949219 11.1875-5 3.324219-9.09375 7.957032-11.730469 13.441406l-2.378906 4.941407c-2.03125 4.226562-6.378906 6.960937-11.070312 6.960937-9.152344.003906-17.820313 3.988282-23.773438 10.9375zm7.566406 18.703125c.335938-3.269531 1.636719-6.394531 3.820313-8.941406 3.105469-3.621094 7.617187-5.695313 12.386719-5.695313 10.421874 0 20.074218-6.066406 24.589843-15.460937l2.375-4.941406c2.257813-4.695313 6.238281-8.144531 11.203125-9.710938 4.964844-1.570312 10.207032-1.035156 14.75 1.511719 7.554688 4.230469 16.773438 4.609375 24.652344 1.019531l21.59375-9.847656c3.441406-1.566406 7.339844-1.476563 10.703125.246094 3.363281 1.722656 5.710937 4.839843 6.445313 8.546875 1.667968 8.40625 7.027343 15.394531 14.71875 19.179687 7.6875 3.785157 16.5 3.769531 24.175781-.039062l15.074219-7.480469c5.320312-2.640625 11.761718-1.097656 15.3125 3.664062 6.09375 8.171876 9.402343 17.90625 9.613281 27.953126h-211.414063zm186.503906 318.46875c-32.066406-.101562-54.480468-5.113281-78.125-10.402343-24.394531-5.453126-49.617187-11.089844-86.070312-11.089844s-61.675781 5.636718-86.070312 11.089844c-23.640626 5.289062-46.046876 10.308593-78.121094 10.402343l-24.480469-226.96875h377.34375zm-248.089843-147.683593c4.140625 0 7.5-3.355469 7.5-7.5 0-4.320313 3.515625-7.839844 7.835937-7.839844 4.324219 0 7.839844 3.519531 7.839844 7.839844 0 4.144531 3.359375 7.5 7.5 7.5 4.144531 0 7.5-3.355469 7.5-7.5 0-12.59375-10.246094-22.839844-22.839844-22.839844s-22.835937 10.246094-22.835937 22.839844c0 4.144531 3.355469 7.5 7.5 7.5zm137.113281 0c4.140625 0 7.5-3.355469 7.5-7.5 0-4.320313 3.515625-7.839844 7.839844-7.839844 4.320312 0 7.839844 3.519531 7.839844 7.839844 0 4.144531 3.355468 7.5 7.5 7.5 4.140624 0 7.5-3.355469 7.5-7.5 0-12.59375-10.246094-22.839844-22.839844-22.839844s-22.839844 10.246094-22.839844 22.839844c0 4.144531 3.355469 7.5 7.5 7.5zm0 0"/></svg>